<?xml version="1.0" encoding="UTF-8" standalone="no"?>
<!-- Created with Inkscape (http://www.inkscape.org/) -->

<svg
   width="43.478027mm"
   height="59.814972mm"
   viewBox="0 0 43.478027 59.814972"
   version="1.1"
   id="svg2881"
   xml:space="preserve"
   xmlns="http://www.w3.org/2000/svg"
   xmlns:svg="http://www.w3.org/2000/svg"><defs
     id="defs2878" /><g
     id="layer1"
     transform="translate(1203.1004,-395.68258)"><g
       id="g3842"><path
         style="fill:#000000;stroke-width:0.264583"
         d="m -1200.6759,427.58358 v -27.91354 l -0.5953,-0.008 c -1.7858,-0.0252 -2.5066,-2.49179 -1.0513,-3.59719 0.6691,-0.50821 41.2502,-0.51057 41.919,-0.002 1.4584,1.10802 0.7404,3.57435 -1.0479,3.59963 l -0.5953,0.008 v 27.91354 27.91354 h -19.3146 -19.3146 z m 20.4476,22.26151 c 1.2157,-0.51457 1.8082,-1.29089 2.075,-2.71878 0.4136,-2.21403 0.3508,-2.19223 6.5517,-2.27341 2.9996,-0.0393 5.4241,-0.1607 5.3877,-0.26984 -0.036,-0.10914 -0.066,-6.68735 -0.066,-14.61823 v -14.41979 h -1.8305 -1.8305 l -0.088,3.30068 c -0.077,2.88832 -0.1544,3.36727 -0.6214,3.83362 -0.3091,0.30871 -4.6445,1.9976 -10.304,4.01403 -12.6888,4.5209 -11.7742,4.89854 -11.7803,-4.86448 v -6.28385 h -1.8521 -1.8521 v 14.41979 c 0,7.93088 -0.03,14.50909 -0.066,14.61823 -0.036,0.10914 2.3881,0.23056 5.3877,0.26984 6.2009,0.0812 6.1381,0.0594 6.5517,2.27341 0.262,1.40221 0.8514,2.19337 2.0174,2.70806 1.0153,0.44819 1.287,0.44944 2.3236,0.0107 z m -3.2497,-40.25318 v -1.98437 h -6.4823 -6.4823 v 1.98437 1.98438 h 6.4823 6.4823 z m 17.1979,0 v -1.98437 h -6.4822 -6.4823 v 1.98437 1.98438 h 6.4823 6.4822 z"
         id="path3812" /><path
         id="rect3836"
         style="fill:#aa0000;stroke-width:0.404986;stroke-linecap:round;paint-order:stroke fill markers;stop-color:#000000"
         d="m -1192.7346,419.45702 v 4.74374 c 0.01,7.37019 -0.9086,7.08498 11.7801,3.67211 5.6595,-1.52222 9.9952,-2.79694 10.3043,-3.02999 0.467,-0.35205 0.5442,-0.71381 0.6212,-2.89422 l 0.088,-2.49164 z" /></g></g></svg>
