<?xml version="1.0" encoding="UTF-8" standalone="no"?>
<!-- Created with Inkscape (http://www.inkscape.org/) -->

<svg
   width="34.989468mm"
   height="38.410702mm"
   viewBox="0 0 34.989468 38.410702"
   version="1.1"
   id="svg5"
   xml:space="preserve"
   xmlns:inkscape="http://www.inkscape.org/namespaces/inkscape"
   xmlns:sodipodi="http://sodipodi.sourceforge.net/DTD/sodipodi-0.dtd"
   xmlns="http://www.w3.org/2000/svg"
   xmlns:svg="http://www.w3.org/2000/svg"><sodipodi:namedview
     id="namedview7"
     pagecolor="#ffffff"
     bordercolor="#666666"
     borderopacity="1.0"
     inkscape:showpageshadow="2"
     inkscape:pageopacity="0.0"
     inkscape:pagecheckerboard="0"
     inkscape:deskcolor="#d1d1d1"
     inkscape:document-units="mm"
     showgrid="false"
     inkscape:zoom="0.86539993"
     inkscape:cx="160.61938"
     inkscape:cy="737.23139"
     inkscape:window-width="2560"
     inkscape:window-height="1062"
     inkscape:window-x="0"
     inkscape:window-y="18"
     inkscape:window-maximized="1"
     inkscape:current-layer="layer1" /><defs
     id="defs2" /><g
     inkscape:label="Calque 1"
     inkscape:groupmode="layer"
     id="layer1"
     transform="translate(-6.114155,-50.879672)"><path
       d="m 36.810592,88.93604 c -0.07904,-0.20599 -0.105074,-0.712 -0.05784,-1.12448 0.06817,-0.5953 0.235923,-0.76722 0.81348,-0.83367 0.672189,-0.0774 0.727604,-0.0126 0.727604,0.85058 0,0.65294 -0.154125,1.0168 -0.511773,1.2082 -0.672029,0.35966 -0.799923,0.34641 -0.971471,-0.10063 z M 21.492794,88.2465 C 20.76519,88.11861 19.444996,87.90076 18.559031,87.76238 16.075387,87.37445 12.82625,85.51727 11.587378,83.77743 l -0.582247,-0.81769 0.653653,0.24852 c 0.359511,0.13668 1.469078,0.65384 2.465708,1.14924 0.996628,0.4954 2.628797,1.18429 3.627041,1.53087 1.364864,0.47387 1.87547,0.78923 2.058861,1.27159 0.217715,0.57263 0.278455,0.59536 0.566261,0.21192 0.256392,-0.34158 1.134867,-0.47895 4.291139,-0.67104 2.182813,-0.13285 4.015484,-0.1982 4.072599,-0.14522 0.265822,0.24656 -0.659595,0.91264 -1.777857,1.27963 -1.626745,0.53387 -3.829711,0.6995 -5.469742,0.41125 z m 10.358604,-2.66525 c -0.555066,-0.64828 -0.546478,-0.66457 0.487236,-0.92401 0.743646,-0.18665 0.763918,-0.17176 0.341429,0.25073 -0.247039,0.24704 -0.38195,0.62431 -0.299802,0.83838 0.207907,0.5418 0.02843,0.48577 -0.528863,-0.1651 z m 3.267438,-2.85696 c 0,-0.12995 0.195434,-0.31127 0.434297,-0.40293 0.363136,-0.13935 0.379503,-0.10063 0.0999,0.23627 -0.381035,0.45912 -0.534194,0.5069 -0.534194,0.16666 z m 2.116666,-2.90191 c 0,-0.17601 0.1714,-0.58372 0.380889,-0.90602 0.209489,-0.3223 0.737973,-1.48058 1.174404,-2.57394 0.72076,-1.80568 0.78572,-2.21808 0.70849,-4.49792 -0.1456,-4.29791 -0.43369,-6.43186 -0.946097,-7.00789 -0.258894,-0.29105 -0.52619,-1.03162 -0.593992,-1.64572 -0.0678,-0.6141 -0.346257,-1.44754 -0.618794,-1.85208 -0.482135,-0.71567 -0.497869,-0.7196 -0.582504,-0.1455 -0.123942,0.84074 -1.221124,1.606 -2.302566,1.606 -0.792469,0 -0.923996,-0.0882 -0.923996,-0.61938 0,-0.34066 0.119062,-0.69297 0.264583,-0.78291 0.399881,-0.24714 0.317016,-0.66146 -0.132291,-0.66146 -0.553035,0 -0.495914,-0.23065 0.198437,-0.8013 0.351092,-0.28854 0.827693,-0.43282 1.161762,-0.3517 0.751615,0.18251 1.046789,-0.3505 0.517802,-0.93502 -0.232537,-0.25695 -0.422793,-0.59278 -0.422793,-0.74629 0,-0.15351 -0.506016,-0.70598 -1.124479,-1.2277 -0.618464,-0.52173 -1.40104,-1.19496 -1.739062,-1.49606 -0.338021,-0.30111 -1.409583,-0.85122 -2.38125,-1.22246 -0.971666,-0.37124 -2.217647,-0.90864 -2.768843,-1.19421 -1.309505,-0.67844 -3.20077,-0.87807 -4.686366,-0.49466 -0.654844,0.169 -1.666875,0.35024 -2.248958,0.40274 -1.12476,0.10146 -5.56094,1.72245 -6.717722,2.45467 -0.379835,0.24043 -1.234056,0.88712 -1.898266,1.43707 -2.2895897,1.89576 -2.9443257,0.82196 -0.858491,-1.40796 2.371246,-2.53506 5.499112,-3.7776 10.532812,-4.18415 1.930175,-0.15589 2.469814,-0.11758 2.848787,0.20224 0.311656,0.26302 0.943901,0.37529 1.896309,0.33676 0.821031,-0.0332 1.845741,0.11642 2.409047,0.35178 0.539149,0.22527 1.152657,0.40959 1.363347,0.40959 0.456878,0 4.099875,2.17281 5.278562,3.14831 1.90618,1.5776 4.643962,5.49709 5.571732,7.97665 0.46565,1.2445 0.54115,1.98877 0.49655,4.89479 -0.0341,2.21944 -0.21589,4.07978 -0.51599,5.27921 -0.25487,1.01864 -0.5281,2.23486 -0.60717,2.70271 -0.0791,0.46784 -0.30983,0.98843 -0.51279,1.15687 -0.20295,0.16844 -0.36901,0.58933 -0.36901,0.93531 0,0.34599 -0.14115,0.62907 -0.31367,0.62907 -0.172528,0 -0.589246,0.25887 -0.926048,0.57528 -0.338248,0.31777 -0.612365,0.43204 -0.612365,0.25528 z M 6.1582613,77.15801 c -0.180732,-0.29242 0.236643,-0.60818 0.480962,-0.36386 0.251563,0.25156 0.204679,0.61017 -0.07977,0.61017 -0.136932,0 -0.317468,-0.11084 -0.40119,-0.24631 z M 30.27255,60.03442 c -0.281852,-0.28185 -0.212315,-1.15094 0.09209,-1.15094 0.391194,0 0.637497,0.78295 0.33992,1.08053 -0.138165,0.13816 -0.332568,0.16985 -0.432009,0.0704 z"
       style="fill:#94601c54;stroke-width:0.264583"
       id="path393" /></g></svg>
