<?xml version="1.0" encoding="UTF-8" standalone="no"?>
<!-- Created with Inkscape (http://www.inkscape.org/) -->

<svg
   width="37.226471mm"
   height="36.943871mm"
   viewBox="0 0 37.226471 36.943871"
   version="1.1"
   id="svg5"
   xml:space="preserve"
   xmlns:inkscape="http://www.inkscape.org/namespaces/inkscape"
   xmlns:sodipodi="http://sodipodi.sourceforge.net/DTD/sodipodi-0.dtd"
   xmlns="http://www.w3.org/2000/svg"
   xmlns:svg="http://www.w3.org/2000/svg"><sodipodi:namedview
     id="namedview7"
     pagecolor="#ffffff"
     bordercolor="#666666"
     borderopacity="1.0"
     inkscape:showpageshadow="2"
     inkscape:pageopacity="0.0"
     inkscape:pagecheckerboard="0"
     inkscape:deskcolor="#d1d1d1"
     inkscape:document-units="mm"
     showgrid="false"
     inkscape:zoom="0.86539993"
     inkscape:cx="160.61938"
     inkscape:cy="737.23139"
     inkscape:window-width="2560"
     inkscape:window-height="1062"
     inkscape:window-x="0"
     inkscape:window-y="18"
     inkscape:window-maximized="1"
     inkscape:current-layer="layer1" /><defs
     id="defs2" /><g
     inkscape:label="Calque 1"
     inkscape:groupmode="layer"
     id="layer1"
     transform="translate(-122.54184,-64.878515)"><path
       style="fill:#a76c4750;stroke-width:0.264583"
       d="m 140.10645,101.69269 c -0.0501,-0.0811 -0.0572,-0.37873 -0.0157,-0.66145 0.0597,-0.40667 0.37412,-0.55472 1.50543,-0.70887 1.85055,-0.25213 3.94884,-0.89912 5.89544,-1.8178 0.85527,-0.40363 2.14794,-0.88583 2.8726,-1.07156 1.00071,-0.25647 1.37838,-0.49765 1.57047,-1.00287 0.1391,-0.36586 0.94612,-1.38711 1.79339,-2.26944 2.96235,-3.08499 4.89827,-8.46538 4.80344,-13.34992 -0.0313,-1.61166 0.0372,-2.1631 0.2432,-1.95713 0.26247,0.26247 0.63655,2.61864 0.96863,6.10107 0.28034,2.93973 -1.84464,8.36565 -4.14947,10.59526 -2.49996,2.41838 -2.7937,2.61532 -3.28841,2.20474 -0.2773,-0.23013 -0.39148,-0.14839 -0.52262,0.3741 -0.0923,0.36771 -0.28425,0.66857 -0.42658,0.66857 -0.14233,0 -0.70561,0.40049 -1.25173,0.88999 -1.20101,1.07647 -2.23108,1.61426 -3.63878,1.89977 -1.20849,0.24512 -6.22164,0.32831 -6.35934,0.10554 z m -3.17123,-0.77402 c -0.73961,-0.73962 -0.85018,-0.77041 -1.76168,-0.49066 -0.83608,0.2566 -1.18016,0.21422 -2.45216,-0.30205 -0.81379,-0.3303 -1.56656,-0.74821 -1.67281,-0.92871 -0.10626,-0.18049 -0.56993,-0.52067 -1.03037,-0.75593 -1.09307,-0.55852 -3.10138,-2.54669 -4.59354,-4.54747 -1.02223,-1.37067 -1.24003,-1.89411 -1.54131,-3.70416 -0.19297,-1.15936 -0.42628,-2.28652 -0.51847,-2.5048 -0.0922,-0.21828 -0.18206,-0.99219 -0.19973,-1.71979 -0.0177,-0.72761 -0.11184,-1.56104 -0.20928,-1.85209 -0.0975,-0.29104 -0.0699,-0.69324 0.0613,-0.89379 0.40921,-0.62577 0.82677,-0.0511 0.82677,1.13788 0,4.26055 2.80152,9.1252 7.14375,12.40465 2.53898,1.91755 6.35295,3.61506 8.13594,3.62112 0.83053,0.003 0.74227,0.4416 -0.1853,0.92127 -1.0387,0.53713 -1.09043,0.52718 -2.00308,-0.38547 z M 122.918,82.02916 c -0.40477,-0.29597 -0.44804,-0.58279 -0.29369,-1.947 0.20224,-1.78755 0.99816,-4.25758 1.71495,-5.32212 0.25968,-0.38566 0.93906,-1.41233 1.50975,-2.28151 1.4524,-2.21204 2.31361,-3.14431 3.76508,-4.07572 1.22378,-0.78529 2.4319,-0.89666 2.4319,-0.22418 0,0.15168 -0.75178,1.00099 -1.67062,1.88737 -3.96274,3.82274 -5.91587,7.08224 -6.39553,10.67328 -0.20983,1.57085 -0.38559,1.78436 -1.06184,1.28988 z m 34.42996,-5.23539 c -0.757,-1.15623 -0.83743,-2.20576 -0.16903,-2.20576 0.48533,0 1.29544,1.59201 1.31269,2.57969 0.0177,1.01437 -0.30347,0.90935 -1.14366,-0.37393 z m -10.3313,-9.78615 c -0.66134,-0.39207 -4.08847,-0.97497 -6.10712,-1.03873 -0.87313,-0.0276 -2.56372,0.17017 -3.75688,0.43943 -2.21293,0.49939 -2.78303,0.41525 -2.30638,-0.34038 0.53012,-0.840427 2.44792,-1.200826 6.32784,-1.189152 4.82029,0.0145 8.07573,0.873822 7.71436,2.036312 -0.11969,0.38501 -1.28157,0.44243 -1.87182,0.0925 z"
       id="path316" /></g></svg>
