<?xml version="1.0" encoding="UTF-8" standalone="no"?>
<!-- Created with Inkscape (http://www.inkscape.org/) -->

<svg
   width="37.171227mm"
   height="37.89035mm"
   viewBox="0 0 37.171227 37.89035"
   version="1.1"
   id="svg5"
   xml:space="preserve"
   xmlns:inkscape="http://www.inkscape.org/namespaces/inkscape"
   xmlns:sodipodi="http://sodipodi.sourceforge.net/DTD/sodipodi-0.dtd"
   xmlns="http://www.w3.org/2000/svg"
   xmlns:svg="http://www.w3.org/2000/svg"><sodipodi:namedview
     id="namedview7"
     pagecolor="#ffffff"
     bordercolor="#666666"
     borderopacity="1.0"
     inkscape:showpageshadow="2"
     inkscape:pageopacity="0.0"
     inkscape:pagecheckerboard="0"
     inkscape:deskcolor="#d1d1d1"
     inkscape:document-units="mm"
     showgrid="false"
     inkscape:zoom="0.86539993"
     inkscape:cx="160.61938"
     inkscape:cy="737.23139"
     inkscape:window-width="2560"
     inkscape:window-height="1062"
     inkscape:window-x="0"
     inkscape:window-y="18"
     inkscape:window-maximized="1"
     inkscape:current-layer="layer1" /><defs
     id="defs2" /><g
     inkscape:label="Calque 1"
     inkscape:groupmode="layer"
     id="layer1"
     transform="translate(-7.3570668,-95.230313)"><path
       d="m 23.314258,132.99067 c -5.92037,-0.79576 -10.46838,-4.21543 -13.6297798,-10.24828 -2.03255,-3.87869 -2.49553,-5.81095 -2.27867,-9.51021 0.38789,-6.61659 3.8069598,-12.30006 9.3328898,-15.51389 3.19352,-1.85733 4.31504,-2.23089 7.30287,-2.43252 6.63414,-0.44767 12.09653,1.81427 16.43927,6.80742 2.9701,3.41492 4.01587,6.47912 4.04687,11.8577 0.0111,1.92488 -0.13642,4.02614 -0.35293,5.02708 -0.39157,1.8103 -2.26987,5.85977 -3.41337,7.35899 -1.41464,1.85468 -7.07654,5.52847 -9.59361,6.22492 -1.82485,0.50492 -5.70927,0.717 -7.85354,0.42879 z m 8.0912,-1.73918 c 1.11585,-0.38009 2.33298,-0.9754 2.70475,-1.32292 0.37176,-0.34752 0.80813,-0.63185 0.9697,-0.63185 0.33077,0 2.45541,-2.32742 2.45541,-2.68975 0,-0.12871 0.70562,-0.9925 1.56805,-1.91955 0.86243,-0.92705 1.81114,-2.16203 2.10824,-2.7444 1.98454,-3.89002 2.18067,-10.10538 0.46679,-14.79258 -1.42287,-3.89131 -5.63642,-7.82206 -9.69933,-9.04833 -0.65485,-0.19765 -1.60735,-0.5523 -2.11667,-0.7881 -1.51952,-0.70352 -6.76613,-0.59755 -9.12813,0.18436 -4.02471,1.33234 -7.41443,3.95191 -9.55232,7.38201 -1.5351098,2.463 -2.0694698,3.85333 -2.6323198,6.849 -0.75073,3.99565 -0.0798,6.83126 1.9262898,8.14092 0.94307,0.61568 1.92349,2.27622 1.92546,3.26113 0.004,2.14627 1.18256,3.92474 3.75979,5.67491 3.09372,2.1009 6.43376,3.06793 10.74637,3.11135 2.01188,0.0203 2.84479,-0.1031 4.49792,-0.6662 z"
       style="fill:#94601c54;stroke-width:0.264583"
       id="path439" /></g></svg>
