<?xml version="1.0" encoding="UTF-8" standalone="no"?>
<!-- Created with Inkscape (http://www.inkscape.org/) -->

<svg
   width="37.789917mm"
   height="38.007626mm"
   viewBox="0 0 37.789917 38.007626"
   version="1.1"
   id="svg5"
   xml:space="preserve"
   xmlns:inkscape="http://www.inkscape.org/namespaces/inkscape"
   xmlns:sodipodi="http://sodipodi.sourceforge.net/DTD/sodipodi-0.dtd"
   xmlns="http://www.w3.org/2000/svg"
   xmlns:svg="http://www.w3.org/2000/svg"><sodipodi:namedview
     id="namedview7"
     pagecolor="#ffffff"
     bordercolor="#666666"
     borderopacity="1.0"
     inkscape:showpageshadow="2"
     inkscape:pageopacity="0.0"
     inkscape:pagecheckerboard="0"
     inkscape:deskcolor="#d1d1d1"
     inkscape:document-units="mm"
     showgrid="false"
     inkscape:zoom="0.86539993"
     inkscape:cx="160.61938"
     inkscape:cy="737.23139"
     inkscape:window-width="2560"
     inkscape:window-height="1062"
     inkscape:window-x="0"
     inkscape:window-y="18"
     inkscape:window-maximized="1"
     inkscape:current-layer="layer1" /><defs
     id="defs2" /><g
     inkscape:label="Calque 1"
     inkscape:groupmode="layer"
     id="layer1"
     transform="translate(-17.494736,-6.9321106)"><path
       d="m 30.670331,43.947123 c -3.191505,-1.1213 -4.546527,-1.8695 -6.683081,-3.69012 -3.966209,-3.37971 -5.885586,-7.04696 -6.334287,-12.10253 -0.494374,-5.57017 0.105192,-8.27673 2.718549,-12.272061 2.024297,-3.094762 3.260069,-4.337722 5.872025,-5.9062015 2.493045,-1.49707 4.117557,-2.12333 7.072627,-2.72654 5.112801,-1.04367 11.046502,0.53111 15.25434,4.0484295 2.472386,2.066652 5.400736,6.487143 5.925839,8.945323 0.152318,0.71306 0.384998,1.77271 0.517067,2.3548 0.463878,2.04451 0.310301,6.66173 -0.289473,8.70272 -0.722701,2.45931 -2.602452,5.90504 -4.012832,7.35583 -1.448324,1.48983 -3.851709,3.38832 -4.289427,3.38832 -0.187397,0 -0.47932,0.167 -0.648722,0.37112 -0.510429,0.61503 -2.944894,1.64738 -4.968398,2.10687 -1.137642,0.25833 -3.001747,0.42592 -4.630207,0.41626 -2.440402,-0.0145 -3.016859,-0.1184 -5.50402,-0.99222 z m 9.36113,-0.99655 c 3.353911,-0.70441 6.937722,-2.86053 9.614196,-5.7842 3.395948,-3.70957 4.777716,-7.60145 4.497991,-12.669 -0.243742,-4.41567 -1.326703,-6.80076 -4.989319,-10.988381 -1.751066,-2.002062 -2.325688,-2.466212 -4.23568,-3.421332 -2.78189,-1.3911395 -4.717386,-1.9026495 -7.898318,-2.0873795 -2.979066,-0.17301 -4.764248,0.21554 -8.028424,1.74739 -6.433064,3.0189895 -10.306019,9.1971325 -10.294884,16.4224225 0.0047,3.07178 0.429641,4.72013 2.038548,7.90817 2.323162,4.60335 7.502049,8.23655 13.374343,9.38265 0.957522,0.18688 3.746177,-0.0534 5.921547,-0.51034 z"
       style="fill:#94601c54;stroke-width:0.264583"
       id="path416" /></g></svg>
