<?xml version="1.0" encoding="UTF-8" standalone="no"?>
<!-- Created with Inkscape (http://www.inkscape.org/) -->

<svg
   width="35.097572mm"
   height="37.23455mm"
   viewBox="0 0 35.097572 37.23455"
   version="1.1"
   id="svg5"
   xml:space="preserve"
   xmlns:inkscape="http://www.inkscape.org/namespaces/inkscape"
   xmlns:sodipodi="http://sodipodi.sourceforge.net/DTD/sodipodi-0.dtd"
   xmlns="http://www.w3.org/2000/svg"
   xmlns:svg="http://www.w3.org/2000/svg"><sodipodi:namedview
     id="namedview7"
     pagecolor="#ffffff"
     bordercolor="#666666"
     borderopacity="1.0"
     inkscape:showpageshadow="2"
     inkscape:pageopacity="0.0"
     inkscape:pagecheckerboard="0"
     inkscape:deskcolor="#d1d1d1"
     inkscape:document-units="mm"
     showgrid="false"
     inkscape:zoom="0.86539993"
     inkscape:cx="160.61938"
     inkscape:cy="737.23139"
     inkscape:window-width="2560"
     inkscape:window-height="1062"
     inkscape:window-x="0"
     inkscape:window-y="18"
     inkscape:window-maximized="1"
     inkscape:current-layer="layer1" /><defs
     id="defs2" /><g
     inkscape:label="Calque 1"
     inkscape:groupmode="layer"
     id="layer1"
     transform="translate(-82.155085,-111.26545)"><path
       style="fill:#94601c54;stroke-width:0.264583"
       d="m 95.66466,147.54276 c -4.53641,-1.67759 -6.61802,-3.08144 -9.01446,-6.0794 -4.16265,-5.2075 -5.45868,-10.67632 -3.78594,-15.97543 1.34527,-4.26169 3.33808,-7.61589 5.78093,-9.73016 1.10292,-0.95457 1.2725,-1.02027 1.89789,-0.73532 0.68366,0.31149 0.68427,0.31457 0.13409,0.67987 -1.03364,0.68631 -3.42985,3.92337 -3.77406,5.09842 -0.18815,0.64229 -0.55552,1.52499 -0.81637,1.96155 -0.26085,0.43657 -0.47471,1.00031 -0.47526,1.25278 -5.2e-4,0.25246 -0.30764,1.50262 -0.68243,2.77812 -0.64467,2.19394 -0.67173,2.52617 -0.50145,6.15556 0.19333,4.12069 0.46561,5.17097 1.68052,6.48229 0.40447,0.43657 1.28248,1.57649 1.95113,2.53316 1.37247,1.96364 2.26906,2.72476 4.58942,3.89594 4.18336,2.11151 7.43719,2.52859 11.84712,1.51857 1.5829,-0.36254 3.26404,-0.88693 3.73587,-1.16531 0.47182,-0.27839 1.00152,-0.41738 1.17709,-0.30887 0.21114,0.13049 -0.0236,0.4005 -0.69316,0.7975 -1.95979,1.16189 -3.77038,1.60575 -7.0978,1.74 -3.17257,0.128 -3.17713,0.12731 -5.95313,-0.89927 z m 14.94638,-2.32894 c 0.1996,-0.38473 1.29387,-1.60651 2.4317,-2.71507 1.13784,-1.10856 2.51025,-2.54303 3.04981,-3.18771 0.78534,-0.93834 1.01439,-1.08517 1.14833,-0.73611 0.19118,0.4982 -1.98721,3.81022 -3.37753,5.13521 -1.09133,1.04006 -2.81818,2.2032 -3.27096,2.2032 -0.27793,0 -0.27433,-0.1348 0.0187,-0.69952 z M 92.22508,113.77027 c 0,-0.94886 5.3602,-2.73221 6.35823,-2.11539 0.42802,0.26453 -0.19067,0.64551 -1.06657,0.65677 -0.3638,0.005 -1.67348,0.42122 -2.91041,0.92564 -2.64438,1.0784 -2.38125,1.0195 -2.38125,0.53298 z m 17.33692,0.19924 c -0.28735,-0.0729 -0.94006,-0.41623 -1.45048,-0.76306 -0.51042,-0.34684 -1.13149,-0.63062 -1.38016,-0.63062 -0.24867,0 -0.52572,-0.11906 -0.61566,-0.26458 -0.0899,-0.14552 -0.48391,-0.2808 -0.87551,-0.30061 -0.59398,-0.0301 -0.61658,-0.0546 -0.13636,-0.14812 0.59746,-0.11633 2.61922,0.65276 4.45146,1.69337 1.04086,0.59115 1.04223,0.67613 0.007,0.41362 z m -8.07651,-2.45201 c 0,-0.33607 0.80289,-0.33607 1.32292,0 0.30117,0.19463 0.1895,0.25746 -0.46302,0.26053 -0.47294,0.002 -0.8599,-0.11501 -0.8599,-0.26053 z"
       id="path314"
       sodipodi:nodetypes="ssssssssssssssssscsscsssssccsscsscssssssccsscs" /></g></svg>
